<mxfile host="Electron" agent="Mozilla/5.0 (Windows NT 10.0; Win64; x64) AppleWebKit/537.36 (KHTML, like Gecko) draw.io/27.0.5 Chrome/134.0.6998.205 Electron/35.3.0 Safari/537.36" version="27.0.5">
  <diagram name="Page-1" id="pyBWGTwH5SU5JarYD8Tf">
    <mxGraphModel dx="969" dy="676" grid="1" gridSize="10" guides="1" tooltips="1" connect="1" arrows="1" fold="1" page="1" pageScale="1" pageWidth="850" pageHeight="1100" math="0" shadow="0">
      <root>
        <mxCell id="0" />
        <mxCell id="1" parent="0" />
        <mxCell id="8kK9Af6EBAAcGIWM93ST-2" value="" style="rounded=0;whiteSpace=wrap;html=1;" vertex="1" parent="1">
          <mxGeometry x="250" y="330" width="290" height="420" as="geometry" />
        </mxCell>
        <mxCell id="8kK9Af6EBAAcGIWM93ST-3" value="" style="rounded=0;whiteSpace=wrap;html=1;" vertex="1" parent="1">
          <mxGeometry x="280" y="360" width="230" height="70" as="geometry" />
        </mxCell>
        <mxCell id="8kK9Af6EBAAcGIWM93ST-4" value="" style="rounded=0;whiteSpace=wrap;html=1;" vertex="1" parent="1">
          <mxGeometry x="280" y="440" width="240" height="270" as="geometry" />
        </mxCell>
        <mxCell id="8kK9Af6EBAAcGIWM93ST-5" value="BUTTON PANEL" style="text;strokeColor=none;fillColor=none;html=1;fontSize=24;fontStyle=1;verticalAlign=middle;align=center;" vertex="1" parent="1">
          <mxGeometry x="340" y="450" width="100" height="40" as="geometry" />
        </mxCell>
        <mxCell id="8kK9Af6EBAAcGIWM93ST-6" value="DISPLAY" style="text;strokeColor=none;fillColor=none;html=1;fontSize=24;fontStyle=1;verticalAlign=middle;align=center;" vertex="1" parent="1">
          <mxGeometry x="345" y="375" width="100" height="40" as="geometry" />
        </mxCell>
        <mxCell id="8kK9Af6EBAAcGIWM93ST-8" value="" style="whiteSpace=wrap;html=1;aspect=fixed;" vertex="1" parent="1">
          <mxGeometry x="280" y="490" width="80" height="80" as="geometry" />
        </mxCell>
        <mxCell id="8kK9Af6EBAAcGIWM93ST-7" value="&lt;font style=&quot;font-size: 15px;&quot;&gt;BUTTON&lt;/font&gt;" style="text;strokeColor=none;fillColor=none;html=1;fontSize=24;fontStyle=1;verticalAlign=middle;align=center;" vertex="1" parent="1">
          <mxGeometry x="270" y="505" width="100" height="40" as="geometry" />
        </mxCell>
        <mxCell id="8kK9Af6EBAAcGIWM93ST-9" value="" style="whiteSpace=wrap;html=1;aspect=fixed;" vertex="1" parent="1">
          <mxGeometry x="360" y="490" width="80" height="80" as="geometry" />
        </mxCell>
        <mxCell id="8kK9Af6EBAAcGIWM93ST-10" value="&lt;font style=&quot;font-size: 15px;&quot;&gt;BUTTON&lt;/font&gt;" style="text;strokeColor=none;fillColor=none;html=1;fontSize=24;fontStyle=1;verticalAlign=middle;align=center;" vertex="1" parent="1">
          <mxGeometry x="350" y="505" width="100" height="40" as="geometry" />
        </mxCell>
        <mxCell id="8kK9Af6EBAAcGIWM93ST-11" value="" style="whiteSpace=wrap;html=1;aspect=fixed;" vertex="1" parent="1">
          <mxGeometry x="440" y="490" width="80" height="80" as="geometry" />
        </mxCell>
        <mxCell id="8kK9Af6EBAAcGIWM93ST-12" value="&lt;font style=&quot;font-size: 15px;&quot;&gt;BUTTON&lt;/font&gt;" style="text;strokeColor=none;fillColor=none;html=1;fontSize=24;fontStyle=1;verticalAlign=middle;align=center;" vertex="1" parent="1">
          <mxGeometry x="430" y="505" width="100" height="40" as="geometry" />
        </mxCell>
        <mxCell id="8kK9Af6EBAAcGIWM93ST-15" value="" style="whiteSpace=wrap;html=1;aspect=fixed;" vertex="1" parent="1">
          <mxGeometry x="280" y="570" width="80" height="80" as="geometry" />
        </mxCell>
        <mxCell id="8kK9Af6EBAAcGIWM93ST-18" value="" style="whiteSpace=wrap;html=1;aspect=fixed;" vertex="1" parent="1">
          <mxGeometry x="360" y="570" width="80" height="80" as="geometry" />
        </mxCell>
        <mxCell id="8kK9Af6EBAAcGIWM93ST-16" value="&lt;font style=&quot;font-size: 15px;&quot;&gt;BUTTON&lt;/font&gt;" style="text;strokeColor=none;fillColor=none;html=1;fontSize=24;fontStyle=1;verticalAlign=middle;align=center;" vertex="1" parent="1">
          <mxGeometry x="350" y="585" width="100" height="40" as="geometry" />
        </mxCell>
        <mxCell id="8kK9Af6EBAAcGIWM93ST-20" value="" style="whiteSpace=wrap;html=1;aspect=fixed;" vertex="1" parent="1">
          <mxGeometry x="440" y="570" width="80" height="80" as="geometry" />
        </mxCell>
        <mxCell id="8kK9Af6EBAAcGIWM93ST-17" value="&lt;font style=&quot;font-size: 15px;&quot;&gt;BUTTON&lt;/font&gt;" style="text;strokeColor=none;fillColor=none;html=1;fontSize=24;fontStyle=1;verticalAlign=middle;align=center;" vertex="1" parent="1">
          <mxGeometry x="270" y="585" width="100" height="40" as="geometry" />
        </mxCell>
        <mxCell id="8kK9Af6EBAAcGIWM93ST-19" value="&lt;font style=&quot;font-size: 15px;&quot;&gt;BUTTON&lt;/font&gt;" style="text;strokeColor=none;fillColor=none;html=1;fontSize=24;fontStyle=1;verticalAlign=middle;align=center;" vertex="1" parent="1">
          <mxGeometry x="430" y="585" width="100" height="40" as="geometry" />
        </mxCell>
      </root>
    </mxGraphModel>
  </diagram>
</mxfile>
